<?xml version="1.0" encoding="UTF-8" standalone="no"?>
<!DOCTYPE svg PUBLIC "-//W3C//DTD SVG 1.1//EN" "http://www.w3.org/Graphics/SVG/1.1/DTD/svg11.dtd">
<svg xmlns="http://www.w3.org/2000/svg" version="1.1" viewBox="0.00 0.00 1600.00 1600.00">
<g stroke-width="2.00" fill="none" stroke-linecap="butt">
<path stroke="#4195ff" vector-effect="non-scaling-stroke" d="
  M 741.10 353.17
  C 718.33 364.55 694.20 368.25 668.54 368.39
  Q 641.08 368.53 620.16 364.58
  Q 613.19 363.26 601.06 359.46"
/>
<path stroke="#3c8aff" vector-effect="non-scaling-stroke" d="
  M 773.30 371.79
  Q 759.66 378.41 745.81 384.37
  Q 724.59 393.52 719.08 395.96
  Q 705.75 401.87 692.31 407.50"
/>
<path stroke="#387fef" vector-effect="non-scaling-stroke" d="
  M 692.31 407.50
  Q 611.38 407.72 530.50 407.37
  Q 522.81 407.34 519.54 406.55"
/>
<path stroke="#3679ef" vector-effect="non-scaling-stroke" d="
  M 833.53 406.55
  Q 831.55 407.34 826.25 407.37
  Q 759.25 407.76 692.31 407.50"
/>
<path stroke="#4195ff" vector-effect="non-scaling-stroke" d="
  M 1052.77 332.72
  C 1046.83 350.43 1044.07 364.24 1040.61 384.13
  Q 1039.06 393.02 1034.44 407.25"
/>
<path stroke="#449cff" vector-effect="non-scaling-stroke" d="
  M 1034.44 407.25
  L 1016.01 407.50"
/>
<path stroke="#4195ff" vector-effect="non-scaling-stroke" d="
  M 1016.01 407.50
  L 967.50 407.69
  A 0.53 0.52 1.7 0 0 966.97 408.18
  Q 963.67 452.87 968.68 493.66
  Q 974.35 539.78 984.53 593.83
  C 987.09 607.37 991.50 620.07 995.48 632.99"
/>
<path stroke="#387fef" vector-effect="non-scaling-stroke" d="
  M 995.48 632.99
  Q 931.15 521.57 866.84 410.16
  Q 866.38 409.36 865.36 409.03"
/>
<path stroke="#47a1ff" vector-effect="non-scaling-stroke" d="
  M 1118.07 370.41
  C 1109.84 381.98 1104.16 393.92 1098.83 407.47"
/>
<path stroke="#4ba9ff" vector-effect="non-scaling-stroke" d="
  M 1098.83 407.47
  L 1075.12 407.50"
/>
<path stroke="#47a1ff" vector-effect="non-scaling-stroke" d="
  M 1075.12 407.50
  L 1034.44 407.25"
/>
<path stroke="#4eb0ff" vector-effect="non-scaling-stroke" d="
  M 1075.12 407.50
  Q 1073.34 440.10 1074.33 472.60
  C 1075.08 497.27 1077.65 518.04 1082.91 540.77
  C 1090.31 572.78 1097.73 602.67 1107.59 633.10"
/>
<path stroke="#47a1ff" vector-effect="non-scaling-stroke" d="
  M 1016.01 407.50
  Q 1010.93 426.62 1011.09 447.33
  C 1011.36 481.94 1015.94 514.53 1022.90 546.84
  C 1027.95 570.28 1037.12 593.16 1043.81 613.99
  Q 1051.48 637.87 1056.08 662.83"
/>
<path stroke="#3b84ef" vector-effect="non-scaling-stroke" d="
  M 1020.74 679.58
  Q 1022.05 678.92 1021.51 678.00
  Q 1008.43 655.52 995.48 632.99"
/>
<path stroke="#54b9ff" vector-effect="non-scaling-stroke" d="
  M 1181.17 406.83
  L 1146.06 407.37"
/>
<path stroke="#4eb0ff" vector-effect="non-scaling-stroke" d="
  M 1146.06 407.37
  L 1098.83 407.47"
/>
<path stroke="#58c1ff" vector-effect="non-scaling-stroke" d="
  M 1168.11 598.18
  Q 1152.07 550.56 1147.79 506.68
  C 1144.48 472.84 1143.30 440.36 1146.06 407.37"
/>
<path stroke="#68d9ff" vector-effect="non-scaling-stroke" d="
  M 1224.54 632.11
  C 1234.31 654.30 1247.89 673.98 1262.32 693.60
  Q 1269.17 702.92 1276.06 710.13
  Q 1293.30 728.17 1313.01 744.60
  Q 1333.34 761.56 1354.78 770.79
  A 0.35 0.34 -76.0 0 0 1355.26 770.50
  L 1355.43 767.96"
/>
<path stroke="#58c1ff" vector-effect="non-scaling-stroke" d="
  M 1355.48 844.21
  L 1355.26 863.65
  A 0.43 0.42 4.8 0 1 1354.77 864.06
  Q 1347.90 863.15 1342.03 859.06
  C 1326.62 848.33 1308.75 833.03 1292.26 817.97
  C 1279.73 806.53 1266.29 795.55 1255.34 785.28
  Q 1241.46 772.26 1231.26 756.01
  C 1220.70 739.21 1214.34 729.99 1199.56 707.82
  C 1189.40 692.58 1179.96 677.19 1170.43 661.72
  Q 1165.67 653.99 1154.90 640.65"
/>
<path stroke="#4eb0ff" vector-effect="non-scaling-stroke" d="
  M 1256.22 948.03
  C 1251.06 936.71 1248.13 923.82 1244.91 913.18
  Q 1239.38 894.90 1228.99 878.58
  C 1222.23 867.98 1218.09 861.69 1211.90 850.63
  C 1203.62 835.85 1197.49 829.03 1183.17 810.15
  Q 1168.64 790.98 1155.75 770.05
  C 1144.43 751.68 1134.24 731.95 1121.10 707.61
  Q 1112.59 691.83 1099.26 672.79"
/>
<path stroke="#3e8bef" vector-effect="non-scaling-stroke" d="
  M 1194.96 980.62
  L 1195.31 979.66
  A 0.81 0.80 39.5 0 0 1195.24 978.97
  Q 1117.95 845.15 1040.70 711.31
  Q 1039.97 710.05 1038.70 709.45"
/>
<path stroke="#387fef" vector-effect="non-scaling-stroke" d="
  M 660.25 891.31
  Q 660.42 889.36 659.38 887.55
  Q 581.97 753.51 504.60 619.44
  Q 503.80 618.05 502.04 617.01"
/>
<path stroke="#3679ef" vector-effect="non-scaling-stroke" d="
  M 1060.44 938.26
  Q 1075.42 951.92 1090.53 965.34
  C 1103.63 976.97 1114.22 987.49 1126.27 998.36
  C 1138.35 1009.25 1149.94 1016.39 1165.30 1015.36
  Q 1173.16 1014.84 1181.89 1012.67"
/>
<path stroke="#3c8aff" vector-effect="non-scaling-stroke" d="
  M 1181.94 1029.43
  C 1174.31 1033.33 1164.80 1037.88 1155.69 1039.21
  C 1143.65 1040.97 1133.06 1036.39 1123.48 1029.51
  Q 1114.82 1023.30 1104.81 1014.72
  Q 1087.08 999.52 1076.20 990.40
  C 1068.66 984.08 1048.03 966.92 1037.82 970.60
  C 1030.57 973.22 1030.02 983.23 1030.54 989.95
  Q 1032.08 1009.81 1039.04 1029.32
  C 1046.14 1049.22 1054.19 1067.61 1060.87 1091.54
  Q 1064.19 1103.48 1075.12 1143.72
  C 1077.46 1152.32 1082.48 1174.66 1087.56 1191.33"
/>
<path stroke="#3679ef" vector-effect="non-scaling-stroke" d="
  M 1087.56 1191.33
  Q 1084.13 1191.22 1080.75 1191.22
  Q 981.38 1191.27 882.00 1191.26
  Q 881.91 1191.26 876.01 1190.97
  Q 871.20 1190.74 866.68 1192.01"
/>
<path stroke="#387fef" vector-effect="non-scaling-stroke" d="
  M 1179.64 1192.48
  Q 1177.61 1191.33 1175.48 1191.33
  Q 1131.49 1191.38 1087.56 1191.33"
/>
<path stroke="#3679ef" vector-effect="non-scaling-stroke" d="
  M 329.63 917.46
  Q 331.11 919.64 332.22 921.57
  Q 408.92 1054.69 486.25 1188.61
  Q 486.57 1189.16 487.16 1189.38
  Q 487.56 1189.53 487.93 1188.71"
/>
<path stroke="#387fef" vector-effect="non-scaling-stroke" d="
  M 676.52 917.34
  Q 754.34 1052.09 832.17 1186.84
  Q 833.71 1189.51 834.92 1189.86"
/>
</g>
<path fill="#439aff" d="
  M 741.10 353.17
  C 718.33 364.55 694.20 368.25 668.54 368.39
  Q 641.08 368.53 620.16 364.58
  Q 613.19 363.26 601.06 359.46
  L 676.02 316.22
  A 0.95 0.95 0.0 0 1 676.98 316.22
  L 741.10 353.17
  Z"
/>
<path fill="#3e90ff" d="
  M 1052.77 332.72
  C 1046.83 350.43 1044.07 364.24 1040.61 384.13
  Q 1039.06 393.02 1034.44 407.25
  L 1016.01 407.50
  L 967.50 407.69
  A 0.53 0.52 1.7 0 0 966.97 408.18
  Q 963.67 452.87 968.68 493.66
  Q 974.35 539.78 984.53 593.83
  C 987.09 607.37 991.50 620.07 995.48 632.99
  Q 931.15 521.57 866.84 410.16
  Q 866.38 409.36 865.36 409.03
  Q 864.97 407.34 866.00 406.75
  Q 944.58 361.44 1022.88 316.20
  A 1.23 1.23 0.0 0 1 1024.12 316.20
  L 1052.77 332.72
  Z"
/>
<path fill="#439aff" d="
  M 1118.07 370.41
  C 1109.84 381.98 1104.16 393.92 1098.83 407.47
  L 1075.12 407.50
  L 1034.44 407.25
  Q 1039.06 393.02 1040.61 384.13
  C 1044.07 364.24 1046.83 350.43 1052.77 332.72
  L 1118.07 370.41
  Z"
/>
<path fill="#3e90ff" d="
  M 773.30 371.79
  Q 759.66 378.41 745.81 384.37
  Q 724.59 393.52 719.08 395.96
  Q 705.75 401.87 692.31 407.50
  Q 611.38 407.72 530.50 407.37
  Q 522.81 407.34 519.54 406.55
  L 601.06 359.46
  Q 613.19 363.26 620.16 364.58
  Q 641.08 368.53 668.54 368.39
  C 694.20 368.25 718.33 364.55 741.10 353.17
  L 773.30 371.79
  Z"
/>
<path fill="#4aa8ff" d="
  M 1118.07 370.41
  L 1181.17 406.83
  L 1146.06 407.37
  L 1098.83 407.47
  C 1104.16 393.92 1109.84 381.98 1118.07 370.41
  Z"
/>
<path fill="#3984ff" d="
  M 833.53 406.55
  Q 831.55 407.34 826.25 407.37
  Q 759.25 407.76 692.31 407.50
  Q 705.75 401.87 719.08 395.96
  Q 724.59 393.52 745.81 384.37
  Q 759.66 378.41 773.30 371.79
  L 833.53 406.55
  Z"
/>
<path fill="#326ede" d="
  M 519.54 406.55
  Q 522.81 407.34 530.50 407.37
  Q 611.38 407.72 692.31 407.50
  Q 759.25 407.76 826.25 407.37
  Q 831.55 407.34 833.53 406.55
  Q 834.89 406.76 834.89 408.24
  Q 834.81 503.73 834.87 589.42
  A 1.32 1.30 -15.2 0 1 834.21 590.55
  L 677.30 681.14
  A 1.53 1.53 0.0 0 1 675.76 681.14
  L 518.95 590.61
  A 1.49 1.48 15.0 0 1 518.20 589.32
  L 518.20 408.38
  A 1.71 1.60 -32.3 0 1 518.41 407.58
  Q 518.98 406.55 519.54 406.55
  Z"
/>
<path fill="#5dcaff" d="
  M 1181.17 406.83
  Q 1181.96 407.39 1181.96 408.25
  Q 1182.06 457.31 1181.95 506.75
  C 1181.89 533.49 1182.12 561.38 1181.85 589.74
  A 1.09 1.09 0.0 0 1 1181.29 590.69
  L 1168.11 598.18
  Q 1152.07 550.56 1147.79 506.68
  C 1144.48 472.84 1143.30 440.36 1146.06 407.37
  L 1181.17 406.83
  Z"
/>
<path fill="#439aff" d="
  M 1016.01 407.50
  Q 1010.93 426.62 1011.09 447.33
  C 1011.36 481.94 1015.94 514.53 1022.90 546.84
  C 1027.95 570.28 1037.12 593.16 1043.81 613.99
  Q 1051.48 637.87 1056.08 662.83
  L 1024.04 681.38
  A 0.78 0.77 47.4 0 1 1023.20 681.34
  L 1020.74 679.58
  Q 1022.05 678.92 1021.51 678.00
  Q 1008.43 655.52 995.48 632.99
  C 991.50 620.07 987.09 607.37 984.53 593.83
  Q 974.35 539.78 968.68 493.66
  Q 963.67 452.87 966.97 408.18
  A 0.53 0.52 1.7 0 1 967.50 407.69
  L 1016.01 407.50
  Z"
/>
<path fill="#4aa8ff" d="
  M 1034.44 407.25
  L 1075.12 407.50
  Q 1073.34 440.10 1074.33 472.60
  C 1075.08 497.27 1077.65 518.04 1082.91 540.77
  C 1090.31 572.78 1097.73 602.67 1107.59 633.10
  L 1056.08 662.83
  Q 1051.48 637.87 1043.81 613.99
  C 1037.12 593.16 1027.95 570.28 1022.90 546.84
  C 1015.94 514.53 1011.36 481.94 1011.09 447.33
  Q 1010.93 426.62 1016.01 407.50
  L 1034.44 407.25
  Z"
/>
<path fill="#52b7ff" d="
  M 1146.06 407.37
  C 1143.30 440.36 1144.48 472.84 1147.79 506.68
  Q 1152.07 550.56 1168.11 598.18
  L 1107.59 633.10
  C 1097.73 602.67 1090.31 572.78 1082.91 540.77
  C 1077.65 518.04 1075.08 497.27 1074.33 472.60
  Q 1073.34 440.10 1075.12 407.50
  L 1098.83 407.47
  L 1146.06 407.37
  Z"
/>
<path fill="#326ede" d="
  M 995.48 632.99
  Q 1008.43 655.52 1021.51 678.00
  Q 1022.05 678.92 1020.74 679.58
  L 865.96 590.64
  A 1.66 1.65 15.2 0 1 865.13 589.21
  L 865.36 409.03
  Q 866.38 409.36 866.84 410.16
  Q 931.15 521.57 995.48 632.99
  Z"
/>
<path fill="#5dcaff" d="
  M 1224.54 632.11
  C 1234.31 654.30 1247.89 673.98 1262.32 693.60
  Q 1269.17 702.92 1276.06 710.13
  Q 1293.30 728.17 1313.01 744.60
  Q 1333.34 761.56 1354.78 770.79
  A 0.35 0.34 -76.0 0 0 1355.26 770.50
  L 1355.43 767.96
  L 1355.48 844.21
  L 1355.26 863.65
  A 0.43 0.42 4.8 0 1 1354.77 864.06
  Q 1347.90 863.15 1342.03 859.06
  C 1326.62 848.33 1308.75 833.03 1292.26 817.97
  C 1279.73 806.53 1266.29 795.55 1255.34 785.28
  Q 1241.46 772.26 1231.26 756.01
  C 1220.70 739.21 1214.34 729.99 1199.56 707.82
  C 1189.40 692.58 1179.96 677.19 1170.43 661.72
  Q 1165.67 653.99 1154.90 640.65
  L 1196.57 616.59
  A 0.86 0.86 0.0 0 1 1197.43 616.59
  L 1224.54 632.11
  Z"
/>
<path fill="#3e90ff" d="
  M 660.25 891.31
  Q 660.42 889.36 659.38 887.55
  Q 581.97 753.51 504.60 619.44
  Q 503.80 618.05 502.04 617.01
  Q 503.30 616.53 503.85 616.85
  Q 579.40 660.51 660.71 707.43
  A 1.52 1.51 15.2 0 1 661.47 708.74
  Q 661.46 742.11 661.40 889.74
  Q 661.40 890.79 660.25 891.31
  Z"
/>
<path fill="#326ede" d="
  M 502.04 617.01
  Q 503.80 618.05 504.60 619.44
  Q 581.97 753.51 659.38 887.55
  Q 660.42 889.36 660.25 891.31
  L 504.03 981.49
  A 2.06 2.05 44.8 0 1 501.98 981.49
  L 345.30 891.02
  A 1.19 1.19 0.0 0 1 344.69 889.98
  L 344.69 708.96
  A 1.94 1.92 -15.1 0 1 345.66 707.29
  L 502.04 617.01
  Z"
/>
<path fill="#73e8ff" d="
  M 1224.54 632.11
  L 1354.93 707.45
  A 1.18 1.18 0.0 0 1 1355.53 708.48
  L 1355.43 767.96
  L 1355.26 770.50
  A 0.35 0.34 -76.0 0 1 1354.78 770.79
  Q 1333.34 761.56 1313.01 744.60
  Q 1293.30 728.17 1276.06 710.13
  Q 1269.17 702.92 1262.32 693.60
  C 1247.89 673.98 1234.31 654.30 1224.54 632.11
  Z"
/>
<path fill="#52b7ff" d="
  M 1154.90 640.65
  Q 1165.67 653.99 1170.43 661.72
  C 1179.96 677.19 1189.40 692.58 1199.56 707.82
  C 1214.34 729.99 1220.70 739.21 1231.26 756.01
  Q 1241.46 772.26 1255.34 785.28
  C 1266.29 795.55 1279.73 806.53 1292.26 817.97
  C 1308.75 833.03 1326.62 848.33 1342.03 859.06
  Q 1347.90 863.15 1354.77 864.06
  A 0.43 0.42 4.8 0 0 1355.26 863.65
  L 1355.48 844.21
  L 1355.39 890.06
  A 1.28 1.28 0.0 0 1 1354.76 891.16
  L 1256.22 948.03
  C 1251.06 936.71 1248.13 923.82 1244.91 913.18
  Q 1239.38 894.90 1228.99 878.58
  C 1222.23 867.98 1218.09 861.69 1211.90 850.63
  C 1203.62 835.85 1197.49 829.03 1183.17 810.15
  Q 1168.64 790.98 1155.75 770.05
  C 1144.43 751.68 1134.24 731.95 1121.10 707.61
  Q 1112.59 691.83 1099.26 672.79
  L 1154.90 640.65
  Z"
/>
<path fill="#4aa8ff" d="
  M 1099.26 672.79
  Q 1112.59 691.83 1121.10 707.61
  C 1134.24 731.95 1144.43 751.68 1155.75 770.05
  Q 1168.64 790.98 1183.17 810.15
  C 1197.49 829.03 1203.62 835.85 1211.90 850.63
  C 1218.09 861.69 1222.23 867.98 1228.99 878.58
  Q 1239.38 894.90 1244.91 913.18
  C 1248.13 923.82 1251.06 936.71 1256.22 948.03
  Q 1227.29 964.71 1198.39 981.41
  Q 1196.71 982.38 1194.96 980.62
  L 1195.31 979.66
  A 0.81 0.80 39.5 0 0 1195.24 978.97
  Q 1117.95 845.15 1040.70 711.31
  Q 1039.97 710.05 1038.70 709.45
  Q 1038.52 707.90 1040.19 706.93
  Q 1069.68 689.79 1099.26 672.79
  Z"
/>
<path fill="#326ede" d="
  M 1194.96 980.62
  L 1039.29 891.04
  A 1.18 1.18 0.0 0 1 1038.70 890.02
  L 1038.70 709.45
  Q 1039.97 710.05 1040.70 711.31
  Q 1117.95 845.15 1195.24 978.97
  A 0.81 0.80 39.5 0 1 1195.31 979.66
  L 1194.96 980.62
  Z"
/>
<path fill="#3984ff" d="
  M 1060.44 938.26
  Q 1075.42 951.92 1090.53 965.34
  C 1103.63 976.97 1114.22 987.49 1126.27 998.36
  C 1138.35 1009.25 1149.94 1016.39 1165.30 1015.36
  Q 1173.16 1014.84 1181.89 1012.67
  L 1181.94 1029.43
  C 1174.31 1033.33 1164.80 1037.88 1155.69 1039.21
  C 1143.65 1040.97 1133.06 1036.39 1123.48 1029.51
  Q 1114.82 1023.30 1104.81 1014.72
  Q 1087.08 999.52 1076.20 990.40
  C 1068.66 984.08 1048.03 966.92 1037.82 970.60
  C 1030.57 973.22 1030.02 983.23 1030.54 989.95
  Q 1032.08 1009.81 1039.04 1029.32
  C 1046.14 1049.22 1054.19 1067.61 1060.87 1091.54
  Q 1064.19 1103.48 1075.12 1143.72
  C 1077.46 1152.32 1082.48 1174.66 1087.56 1191.33
  Q 1084.13 1191.22 1080.75 1191.22
  Q 981.38 1191.27 882.00 1191.26
  Q 881.91 1191.26 876.01 1190.97
  Q 871.20 1190.74 866.68 1192.01
  Q 865.14 1191.47 865.14 1189.25
  Q 865.24 1098.99 865.15 1008.94
  A 1.04 1.04 0.0 0 1 865.67 1008.04
  L 1023.01 917.19
  A 0.93 0.93 0.0 0 1 1023.93 917.19
  L 1060.44 938.26
  Z"
/>
<path fill="#326ede" d="
  M 329.63 917.46
  Q 331.11 919.64 332.22 921.57
  Q 408.92 1054.69 486.25 1188.61
  Q 486.57 1189.16 487.16 1189.38
  Q 487.56 1189.53 487.93 1188.71
  Q 488.20 1190.02 487.69 1191.02
  A 1.59 1.59 0.0 0 1 487.09 1191.65
  L 330.35 1282.14
  A 1.65 1.65 0.0 0 1 328.71 1282.14
  L 172.21 1191.80
  A 1.70 1.68 -88.4 0 1 171.52 1191.06
  Q 171.20 1190.38 171.20 1187.25
  Q 171.22 1088.95 171.20 1009.18
  A 1.40 1.39 75.4 0 1 171.91 1007.96
  Q 256.61 959.06 327.39 918.15
  Q 328.96 917.24 329.63 917.46
  Z"
/>
<path fill="#326ede" d="
  M 676.52 917.34
  Q 754.34 1052.09 832.17 1186.84
  Q 833.71 1189.51 834.92 1189.86
  Q 835.24 1190.98 834.12 1191.63
  Q 810.11 1205.49 677.77 1281.91
  A 2.48 2.46 -44.8 0 1 675.32 1281.91
  L 518.72 1191.49
  A 1.05 1.04 -75.3 0 1 518.19 1190.58
  L 518.19 1009.64
  A 2.19 2.19 0.0 0 1 519.29 1007.74
  L 676.52 917.34
  Z"
/>
<path fill="#3e90ff" d="
  M 834.92 1189.86
  Q 833.71 1189.51 832.17 1186.84
  Q 754.34 1052.09 676.52 917.34
  L 834.21 1007.90
  A 1.46 1.43 15.2 0 1 834.94 1009.15
  L 834.92 1189.86
  Z"
/>
<path fill="#3984ff" d="
  M 487.93 1188.71
  Q 487.56 1189.53 487.16 1189.38
  Q 486.57 1189.16 486.25 1188.61
  Q 408.92 1054.69 332.22 921.57
  Q 331.11 919.64 329.63 917.46
  Q 330.54 917.48 330.86 917.66
  Q 409.12 962.90 487.36 1008.05
  A 1.11 1.11 0.0 0 1 487.91 1009.01
  L 487.93 1188.71
  Z"
/>
<path fill="#326ede" d="
  M 1181.89 1012.67
  Q 1173.16 1014.84 1165.30 1015.36
  C 1149.94 1016.39 1138.35 1009.25 1126.27 998.36
  C 1114.22 987.49 1103.63 976.97 1090.53 965.34
  Q 1075.42 951.92 1060.44 938.26
  L 1180.96 1007.88
  A 1.35 1.28 7.6 0 1 1181.55 1008.61
  Q 1182.13 1010.50 1181.89 1012.67
  Z"
/>
<path fill="#3e90ff" d="
  M 1181.94 1029.43
  L 1181.91 1190.52
  A 0.92 0.91 73.7 0 1 1181.49 1191.29
  L 1179.64 1192.48
  Q 1177.61 1191.33 1175.48 1191.33
  Q 1131.49 1191.38 1087.56 1191.33
  C 1082.48 1174.66 1077.46 1152.32 1075.12 1143.72
  Q 1064.19 1103.48 1060.87 1091.54
  C 1054.19 1067.61 1046.14 1049.22 1039.04 1029.32
  Q 1032.08 1009.81 1030.54 989.95
  C 1030.02 983.23 1030.57 973.22 1037.82 970.60
  C 1048.03 966.92 1068.66 984.08 1076.20 990.40
  Q 1087.08 999.52 1104.81 1014.72
  Q 1114.82 1023.30 1123.48 1029.51
  C 1133.06 1036.39 1143.65 1040.97 1155.69 1039.21
  C 1164.80 1037.88 1174.31 1033.33 1181.94 1029.43
  Z"
/>
<path fill="#326ede" d="
  M 1087.56 1191.33
  Q 1131.49 1191.38 1175.48 1191.33
  Q 1177.61 1191.33 1179.64 1192.48
  L 1024.04 1282.29
  A 1.03 1.01 -44.5 0 1 1023.01 1282.29
  L 866.68 1192.01
  Q 871.20 1190.74 876.01 1190.97
  Q 881.91 1191.26 882.00 1191.26
  Q 981.38 1191.27 1080.75 1191.22
  Q 1084.13 1191.22 1087.56 1191.33
  Z"
/>
</svg>
