<?xml version="1.0" encoding="UTF-8" standalone="no"?>
<!DOCTYPE svg PUBLIC "-//W3C//DTD SVG 1.1//EN" "http://www.w3.org/Graphics/SVG/1.1/DTD/svg11.dtd">
<svg xmlns="http://www.w3.org/2000/svg" version="1.1" viewBox="0.00 0.00 1773.00 1773.00">
<path fill="#ffffff" d="
  M 1274.65 162.94
  Q 1275.21 162.94 1275.80 163.28
  Q 1334.46 197.24 1393.16 231.13
  Q 1451.87 265.03 1510.60 298.86
  Q 1511.19 299.20 1511.48 299.70
  Q 1511.76 300.19 1511.76 300.87
  Q 1511.69 368.65 1511.68 436.44
  Q 1511.68 504.22 1511.75 572.01
  Q 1511.75 572.69 1511.46 573.19
  Q 1511.18 573.68 1510.59 574.02
  Q 1451.85 607.84 1393.14 641.73
  Q 1334.44 675.62 1275.77 709.57
  Q 1275.18 709.91 1274.60 709.91
  Q 1274.03 709.91 1273.45 709.57
  Q 1214.78 675.62 1156.08 641.72
  Q 1097.38 607.82 1038.64 573.99
  Q 1038.06 573.65 1037.76 573.15
  Q 1037.48 572.66 1037.48 571.98
  Q 1037.56 504.20 1037.56 436.41
  Q 1037.57 368.63 1037.50 300.84
  Q 1037.50 300.17 1037.79 299.66
  Q 1038.07 299.17 1038.66 298.83
  Q 1097.40 265.01 1156.10 231.12
  Q 1214.81 197.23 1273.48 163.28
  Q 1274.06 162.94 1274.65 162.94
  Z"
/>
<path fill="#ffffff" d="
  M 637.65 641.69
  Q 578.95 607.80 520.22 573.97
  Q 519.63 573.63 519.34 573.12
  Q 519.06 572.64 519.06 571.96
  Q 519.13 504.18 519.14 436.40
  Q 519.14 368.62 519.07 300.84
  Q 519.07 300.16 519.37 299.65
  Q 519.65 299.17 520.23 298.83
  Q 578.97 265.00 637.68 231.12
  Q 696.38 197.23 755.04 163.28
  Q 755.63 162.94 756.21 162.94
  Q 756.78 162.94 757.36 163.28
  Q 816.02 197.24 874.72 231.13
  Q 933.42 265.03 992.15 298.86
  Q 992.74 299.20 993.03 299.70
  Q 993.32 300.19 993.31 300.87
  Q 993.24 368.65 993.23 436.43
  Q 993.23 504.21 993.30 571.99
  Q 993.30 572.67 993.01 573.17
  Q 992.72 573.66 992.14 574.00
  Q 933.40 607.82 874.70 641.71
  Q 815.99 675.60 757.33 709.55
  Q 756.74 709.89 756.16 709.89
  Q 755.59 709.89 755.01 709.55
  Q 696.35 675.59 637.65 641.69
  Z"
/>
<path fill="#ffffff" d="
  M 378.46 1090.66
  Q 319.76 1056.76 261.03 1022.93
  Q 260.44 1022.59 260.15 1022.09
  Q 259.87 1021.60 259.87 1020.92
  Q 259.95 953.14 259.95 885.36
  Q 259.95 817.58 259.89 749.80
  Q 259.88 749.13 260.18 748.62
  Q 260.46 748.13 261.05 747.79
  Q 319.78 713.97 378.48 680.08
  Q 437.19 646.20 495.85 612.25
  Q 496.44 611.91 497.02 611.91
  Q 497.58 611.91 498.17 612.25
  Q 556.83 646.21 615.53 680.10
  Q 674.23 713.99 732.96 747.82
  Q 733.55 748.16 733.84 748.67
  Q 734.12 749.15 734.12 749.83
  Q 734.04 817.61 734.04 885.39
  Q 734.03 953.17 734.10 1020.95
  Q 734.10 1021.63 733.81 1022.14
  Q 733.53 1022.62 732.94 1022.96
  Q 674.20 1056.78 615.50 1090.67
  Q 556.80 1124.56 498.14 1158.51
  Q 497.55 1158.85 496.97 1158.85
  Q 496.40 1158.85 495.82 1158.51
  Q 437.16 1124.55 378.46 1090.66
  Z"
/>
<path fill="#ffffff" d="
  M 1415.30 1090.67
  Q 1356.60 1056.77 1297.86 1022.93
  Q 1297.27 1022.60 1296.98 1022.09
  Q 1296.70 1021.60 1296.70 1020.93
  Q 1296.78 953.14 1296.78 885.35
  Q 1296.79 817.56 1296.72 749.77
  Q 1296.72 749.10 1297.01 748.59
  Q 1297.29 748.10 1297.88 747.76
  Q 1356.62 713.94 1415.33 680.05
  Q 1474.04 646.16 1532.71 612.21
  Q 1533.30 611.87 1533.88 611.87
  Q 1534.45 611.87 1535.03 612.21
  Q 1593.70 646.17 1652.40 680.07
  Q 1711.11 713.96 1769.85 747.80
  Q 1770.43 748.14 1770.73 748.64
  Q 1771.01 749.13 1771.01 749.81
  Q 1770.93 817.60 1770.92 885.38
  Q 1770.92 953.17 1770.99 1020.96
  Q 1770.99 1021.64 1770.70 1022.14
  Q 1770.41 1022.63 1769.83 1022.97
  Q 1711.08 1056.80 1652.37 1090.69
  Q 1593.67 1124.57 1534.99 1158.53
  Q 1534.41 1158.87 1533.82 1158.87
  Q 1533.26 1158.87 1532.67 1158.53
  Q 1474.01 1124.57 1415.30 1090.67
  Z"
/>
<path fill="#ffffff" d="
  M 1156.06 1539.61
  Q 1097.36 1505.71 1038.63 1471.88
  Q 1038.04 1471.54 1037.75 1471.04
  Q 1037.47 1470.55 1037.47 1469.87
  Q 1037.55 1402.09 1037.55 1334.31
  Q 1037.56 1266.54 1037.49 1198.76
  Q 1037.49 1198.08 1037.78 1197.57
  Q 1038.06 1197.09 1038.65 1196.75
  Q 1097.39 1162.93 1156.09 1129.04
  Q 1214.79 1095.16 1273.45 1061.21
  Q 1274.04 1060.87 1274.62 1060.87
  Q 1275.19 1060.87 1275.77 1061.21
  Q 1334.43 1095.16 1393.13 1129.06
  Q 1451.82 1162.95 1510.56 1196.78
  Q 1511.14 1197.12 1511.43 1197.63
  Q 1511.72 1198.11 1511.72 1198.79
  Q 1511.64 1266.57 1511.63 1334.35
  Q 1511.63 1402.13 1511.70 1469.91
  Q 1511.70 1470.58 1511.40 1471.09
  Q 1511.12 1471.58 1510.54 1471.92
  Q 1451.80 1505.74 1393.10 1539.62
  Q 1334.40 1573.51 1275.73 1607.46
  Q 1275.15 1607.80 1274.56 1607.80
  Q 1274.00 1607.80 1273.41 1607.46
  Q 1214.75 1573.50 1156.06 1539.61
  Z"
/>
<path fill="#ffffff" d="
  M 119.27 1539.61
  Q 60.58 1505.72 1.85 1471.89
  Q 1.26 1471.55 0.97 1471.04
  Q 0.69 1470.55 0.69 1469.88
  Q 0.76 1402.10 0.77 1334.32
  Q 0.77 1266.55 0.70 1198.77
  Q 0.70 1198.09 1.00 1197.59
  Q 1.28 1197.10 1.86 1196.76
  Q 60.60 1162.94 119.30 1129.05
  Q 178.00 1095.17 236.66 1061.22
  Q 237.24 1060.88 237.83 1060.88
  Q 238.39 1060.88 238.98 1061.22
  Q 297.64 1095.18 356.33 1129.07
  Q 415.03 1162.96 473.76 1196.79
  Q 474.34 1197.13 474.64 1197.63
  Q 474.92 1198.12 474.92 1198.80
  Q 474.84 1266.57 474.84 1334.35
  Q 474.83 1402.13 474.90 1469.91
  Q 474.90 1470.58 474.61 1471.09
  Q 474.33 1471.58 473.74 1471.91
  Q 415.00 1505.74 356.31 1539.62
  Q 297.61 1573.51 238.95 1607.45
  Q 238.36 1607.79 237.77 1607.79
  Q 237.21 1607.79 236.63 1607.45
  Q 177.97 1573.50 119.27 1539.61
  Z"
/>
<path fill="#ffffff" d="
  M 637.65 1539.61
  Q 578.96 1505.71 520.23 1471.88
  Q 519.64 1471.55 519.35 1471.04
  Q 519.07 1470.55 519.07 1469.87
  Q 519.14 1402.10 519.15 1334.32
  Q 519.15 1266.54 519.09 1198.76
  Q 519.09 1198.08 519.38 1197.58
  Q 519.66 1197.09 520.25 1196.75
  Q 578.98 1162.93 637.68 1129.04
  Q 696.38 1095.16 755.05 1061.21
  Q 755.63 1060.87 756.22 1060.87
  Q 756.78 1060.87 757.37 1061.21
  Q 816.03 1095.17 874.72 1129.06
  Q 933.42 1162.95 992.15 1196.78
  Q 992.74 1197.12 993.03 1197.63
  Q 993.31 1198.12 993.31 1198.79
  Q 993.23 1266.57 993.23 1334.35
  Q 993.22 1402.13 993.29 1469.91
  Q 993.29 1470.59 993.00 1471.09
  Q 992.72 1471.58 992.13 1471.92
  Q 933.39 1505.74 874.69 1539.62
  Q 815.99 1573.51 757.33 1607.46
  Q 756.74 1607.80 756.16 1607.80
  Q 755.59 1607.80 755.01 1607.46
  Q 696.35 1573.50 637.65 1539.61
  Z"
/>
</svg>
