<?xml version="1.0" encoding="UTF-8" standalone="no"?>
<svg xmlns="http://www.w3.org/2000/svg" version="1.2" baseProfile="tiny" viewBox="0.00 0.00 300.00 300.00">
<g stroke-width="2.00" fill="none" stroke-linecap="butt">
<path stroke="#46a3ff" vector-effect="non-scaling-stroke" d="
  M 238.47 40.52
  Q 237.16 45.81 234.50 50.41
  A 0.91 0.89 -75.0 0 1 233.72 50.87
  L 214.96 50.87
  A 0.61 0.60 87.0 0 0 214.36 51.54
  Q 217.67 83.23 227.12 113.70"
/>
<path stroke="#397fe3" vector-effect="non-scaling-stroke" d="
  M 214.50 119.66
  Q 215.02 119.65 215.10 119.56
  A 0.66 0.65 -43.4 0 0 215.12 118.89
  L 177.20 53.52
  A 0.89 0.88 30.3 0 0 175.55 53.95
  Q 175.55 54.34 175.64 54.97"
/>
<path stroke="#52baff" vector-effect="non-scaling-stroke" d="
  M 254.40 49.70
  L 248.53 50.38
  A 1.04 1.03 13.4 0 0 247.76 50.85
  C 237.28 66.60 240.93 84.96 251.15 99.75"
/>
<path stroke="#417ded" vector-effect="non-scaling-stroke" d="
  M 166.37 49.62
  Q 156.69 51.10 144.95 50.89
  Q 136.70 50.74 105.79 50.66
  Q 101.07 50.64 96.35 50.52
  A 2.50 2.23 -48.4 0 0 95.67 50.60
  Q 92.71 51.39 90.28 49.27"
/>
<path stroke="#3c77e1" vector-effect="non-scaling-stroke" d="
  M 86.32 104.68
  Q 85.64 106.40 86.68 108.17
  Q 93.88 120.40 121.63 168.63
  Q 122.46 170.07 124.25 170.47"
/>
<path stroke="#3d79e1" vector-effect="non-scaling-stroke" d="
  M 129.87 180.50
  Q 129.88 184.96 133.56 189.16
  A 3.51 3.51 0.0 0 1 134.01 189.79
  L 162.48 239.19
  A 4.12 3.95 -70.3 0 1 162.78 239.86
  Q 164.43 244.80 168.07 246.78"
/>
<path stroke="#357aea" vector-effect="non-scaling-stroke" d="
  M 255.12 249.51
  Q 251.80 250.23 250.14 249.94
  Q 244.43 248.94 235.93 248.93
  Q 207.08 248.88 178.21 248.62
  A 1.26 1.24 -23.0 0 1 177.35 248.28
  L 175.69 246.76"
/>
<path stroke="#5ac5ff" vector-effect="non-scaling-stroke" d="
  M 299.70 165.06
  C 291.23 153.40 281.73 144.35 273.20 134.72
  C 267.11 127.83 258.92 116.82 251.24 108.20"
/>
<path stroke="#3f8ee6" vector-effect="non-scaling-stroke" d="
  M 259.93 195.78
  L 257.98 193.38
  A 1.30 0.65 28.9 0 1 257.89 193.26
  L 220.27 127.80
  A 0.27 0.27 0.0 0 0 220.02 127.66
  Q 219.73 127.66 219.41 127.52"
/>
<path stroke="#386fdd" vector-effect="non-scaling-stroke" d="
  M 42.56 180.78
  Q 42.17 184.51 45.16 188.01
  A 2.35 2.21 -81.9 0 1 45.47 188.45
  Q 60.00 213.80 74.63 239.07
  Q 74.77 239.31 77.33 244.16
  Q 78.29 245.99 80.41 246.12"
/>
</g>
<g fill="#2f64c3">
<path d="
  M 86.32 104.68
  Q 85.64 106.40 86.68 108.17
  Q 93.88 120.40 121.63 168.63
  Q 122.46 170.07 124.25 170.47
  Q 124.52 172.88 123.65 173.38
  Q 104.78 184.25 84.80 195.83
  A 1.45 1.44 -44.7 0 1 83.35 195.83
  L 44.89 173.62
  A 2.01 2.00 15.0 0 1 43.88 171.88
  L 43.88 127.46
  A 1.42 1.42 0.0 0 1 44.59 126.23
  Q 65.70 114.08 83.22 103.94
  Q 84.30 103.32 86.32 104.68
  Z"
/>
<path d="
  M 129.87 180.50
  Q 129.88 184.96 133.56 189.16
  A 3.51 3.51 0.0 0 1 134.01 189.79
  L 162.48 239.19
  A 4.12 3.95 -70.3 0 1 162.78 239.86
  Q 164.43 244.80 168.07 246.78
  Q 168.15 247.48 167.86 248.68
  A 1.18 1.17 -8.2 0 1 167.31 249.41
  L 128.78 271.66
  A 1.82 1.80 44.7 0 1 126.99 271.66
  L 88.64 249.52
  A 1.90 1.88 15.3 0 1 87.70 247.89
  L 87.70 203.58
  A 1.76 1.74 -15.3 0 1 88.57 202.07
  L 127.08 179.84
  A 1.25 1.23 36.4 0 1 128.00 179.71
  Q 129.24 180.01 129.87 180.50
  Z"
/>
</g>
<path fill="#3986ff" d="
  M 255.12 249.51
  Q 251.80 250.23 250.14 249.94
  Q 244.43 248.94 235.93 248.93
  Q 207.08 248.88 178.21 248.62
  A 1.26 1.24 -23.0 0 1 177.35 248.28
  L 175.69 246.76
  L 175.71 203.36
  A 1.58 1.56 75.2 0 1 176.49 202.00
  L 215.10 179.71
  A 1.30 1.28 44.6 0 1 216.37 179.71
  L 255.21 202.14
  A 1.43 1.42 16.2 0 1 255.92 203.42
  Q 255.50 213.27 255.89 223.47
  Q 256.42 237.47 255.12 249.51
  Z"
/>
<path fill="#4eb2ff" d="
  M 299.70 165.06
  L 299.58 172.44
  A 1.53 1.52 -14.5 0 1 298.82 173.72
  L 259.93 195.78
  L 257.98 193.38
  A 1.30 0.65 28.9 0 1 257.89 193.26
  L 220.27 127.80
  A 0.27 0.27 0.0 0 0 220.02 127.66
  Q 219.73 127.66 219.41 127.52
  Q 219.38 126.64 220.16 126.18
  Q 235.63 117.04 251.24 108.20
  C 258.92 116.82 267.11 127.83 273.20 134.72
  C 281.73 144.35 291.23 153.40 299.70 165.06
  Z"
/>
<path fill="#66d8ff" d="
  M 300.00 135.75
  L 300.00 137.99
  Q 299.69 139.44 300.00 140.90
  L 300.00 155.73
  Q 299.67 157.49 300.00 159.27
  L 300.00 159.62
  Q 299.62 160.56 300.00 161.28
  Q 300.00 161.32 300.00 161.37
  L 299.70 165.06
  C 291.23 153.40 281.73 144.35 273.20 134.72
  C 267.11 127.83 258.92 116.82 251.24 108.20
  L 258.54 103.88
  A 2.12 2.12 0.0 0 1 260.67 103.86
  Q 280.22 114.96 298.10 125.41
  Q 299.75 126.37 299.70 128.56
  Q 299.62 132.18 300.00 135.75
  Z"
/>
<path fill="#316edd" d="
  M 90.28 49.27
  Q 92.71 51.39 95.67 50.60
  A 2.50 2.23 -48.4 0 1 96.35 50.52
  Q 101.07 50.64 105.79 50.66
  Q 136.70 50.74 144.95 50.89
  Q 156.69 51.10 166.37 49.62
  Q 167.09 49.66 167.97 50.92
  A 1.04 1.04 0.0 0 1 168.16 51.52
  L 168.16 96.25
  A 1.39 1.37 -15.2 0 1 167.47 97.44
  L 128.78 119.78
  A 1.74 1.74 0.0 0 1 127.06 119.78
  L 88.31 97.40
  A 1.25 1.24 15.0 0 1 87.68 96.32
  L 87.68 51.51
  A 1.06 1.06 0.0 0 1 87.91 50.85
  Q 88.75 49.73 90.28 49.27
  Z"
/>
<path fill="#4198ff" d="
  M 238.47 40.52
  Q 237.16 45.81 234.50 50.41
  A 0.91 0.89 -75.0 0 1 233.72 50.87
  L 214.96 50.87
  A 0.61 0.60 87.0 0 0 214.36 51.54
  Q 217.67 83.23 227.12 113.70
  Q 221.96 116.59 217.03 119.51
  Q 215.84 120.21 214.50 119.66
  Q 215.02 119.65 215.10 119.56
  A 0.66 0.65 -43.4 0 0 215.12 118.89
  L 177.20 53.52
  A 0.89 0.88 30.3 0 0 175.55 53.95
  Q 175.55 54.34 175.64 54.97
  Q 175.33 52.82 175.87 50.91
  A 1.48 1.45 -7.6 0 1 176.55 50.04
  L 215.13 27.76
  A 1.14 1.14 0.0 0 1 216.27 27.76
  L 238.47 40.52
  Z"
/>
<path fill="#59c5ff" d="
  M 251.15 99.75
  C 240.93 84.96 237.28 66.60 247.76 50.85
  A 1.04 1.03 13.4 0 1 248.53 50.38
  L 254.40 49.70
  Q 255.13 49.99 255.59 50.71
  A 1.50 1.49 29.5 0 1 255.81 51.49
  L 255.81 96.06
  A 1.86 1.86 0.0 0 1 254.85 97.69
  L 251.15 99.75
  Z"
/>
<path fill="#407cfc" d="
  M 80.41 246.12
  Q 78.29 245.99 77.33 244.16
  Q 74.77 239.31 74.63 239.07
  Q 60.00 213.80 45.47 188.45
  A 2.35 2.21 -81.9 0 0 45.16 188.01
  Q 42.17 184.51 42.56 180.78
  L 80.13 202.57
  A 0.56 0.53 15.5 0 1 80.41 203.04
  L 80.41 246.12
  Z"
/>
<path fill="#508bfd" d="
  M 166.37 49.62
  Q 156.69 51.10 144.95 50.89
  Q 136.70 50.74 105.79 50.66
  Q 101.07 50.64 96.35 50.52
  A 2.50 2.23 -48.4 0 0 95.67 50.60
  Q 92.71 51.39 90.28 49.27
  L 127.02 28.05
  A 2.04 2.02 44.8 0 1 129.07 28.05
  L 166.37 49.62
  Z"
/>
<path fill="#3069cd" d="
  M 219.41 127.52
  Q 219.73 127.66 220.02 127.66
  A 0.27 0.27 0.0 0 1 220.27 127.80
  L 257.89 193.26
  A 1.30 0.65 28.9 0 0 257.98 193.38
  L 259.93 195.78
  Q 259.21 196.05 258.59 195.69
  Q 239.44 184.54 219.95 173.41
  A 0.96 0.94 -75.6 0 1 219.47 172.58
  L 219.41 127.52
  Z"
/>
<path fill="#4b8efe" d="
  M 168.07 246.78
  Q 164.43 244.80 162.78 239.86
  A 4.12 3.95 -70.3 0 0 162.48 239.19
  L 134.01 189.79
  A 3.51 3.51 0.0 0 0 133.56 189.16
  Q 129.88 184.96 129.87 180.50
  L 167.31 202.20
  A 1.56 1.53 15.4 0 1 168.08 203.53
  L 168.07 246.78
  Z"
/>
<path fill="#4baefe" d="
  M 254.40 49.70
  L 248.53 50.38
  A 1.04 1.03 13.4 0 0 247.76 50.85
  C 237.28 66.60 240.93 84.96 251.15 99.75
  L 227.12 113.70
  Q 217.67 83.23 214.36 51.54
  A 0.61 0.60 87.0 0 1 214.96 50.87
  L 233.72 50.87
  A 0.91 0.89 -75.0 0 0 234.50 50.41
  Q 237.16 45.81 238.47 40.52
  L 254.40 49.70
  Z"
/>
<path fill="#2f62be" d="
  M 42.56 180.78
  Q 42.17 184.51 45.16 188.01
  A 2.35 2.21 -81.9 0 1 45.47 188.45
  Q 60.00 213.80 74.63 239.07
  Q 74.77 239.31 77.33 244.16
  Q 78.29 245.99 80.41 246.12
  L 80.26 248.58
  A 0.96 0.95 77.6 0 1 79.78 249.34
  L 41.04 271.71
  A 1.74 1.72 -44.7 0 1 39.31 271.71
  L 0.00 248.82
  L 0.00 202.79
  L 39.59 179.79
  A 1.14 1.13 38.3 0 1 40.50 179.69
  Q 41.72 180.07 42.56 180.78
  Z"
/>
<path fill="#316ed5" d="
  M 255.12 249.51
  L 216.50 271.71
  A 1.65 1.63 -44.7 0 1 214.85 271.71
  L 176.33 249.47
  A 1.18 1.17 8.2 0 1 175.78 248.74
  Q 175.57 247.86 175.69 246.76
  L 177.35 248.28
  A 1.26 1.24 -23.0 0 0 178.21 248.62
  Q 207.08 248.88 235.93 248.93
  Q 244.43 248.94 250.14 249.94
  Q 251.80 250.23 255.12 249.51
  Z"
/>
<path fill="#488afe" d="
  M 124.25 170.47
  Q 122.46 170.07 121.63 168.63
  Q 93.88 120.40 86.68 108.17
  Q 85.64 106.40 86.32 104.68
  L 123.22 125.97
  A 1.94 1.91 15.3 0 1 124.18 127.63
  L 124.25 170.47
  Z"
/>
<path fill="#3066c6" d="
  M 214.50 119.66
  L 176.10 97.39
  A 0.90 0.89 15.3 0 1 175.66 96.62
  L 175.64 54.97
  Q 175.55 54.34 175.55 53.95
  A 0.89 0.88 30.3 0 1 177.20 53.52
  L 215.12 118.89
  A 0.66 0.65 -43.4 0 1 215.10 119.56
  Q 215.02 119.65 214.50 119.66
  Z"
/>
</svg>
